<svg width="230" height="42" viewBox="0 0 230 42" fill="none" xmlns="http://www.w3.org/2000/svg">
<path d="M16.7214 41.0909C24.9448 41.0909 30.6192 36.9222 30.6192 30.1346C30.6192 25.1108 26.3866 21.3696 21.2069 20.8886V20.4076C25.0783 19.793 28.7235 16.2122 28.7235 12.1503C28.7235 6.2179 23.6632 2.53017 16.3476 2.53017H0.575195V41.0909H16.7214ZM7.7911 7.90142H14.6655C18.8306 7.90142 21.5877 9.90562 21.5877 13.3528C21.5877 16.8802 18.6704 18.7775 13.7844 18.7775H7.7911V7.90142ZM7.7911 35.7197V23.6678H14.8791C20.1389 23.6678 23.2431 25.7254 23.2431 29.6536C23.2431 33.6086 20.219 35.7197 15.1461 35.7197H7.7911Z" fill="white"/>
<path d="M34.185 14.2684H40.9737C40.9737 10.2066 43.3162 7.09974 47.508 7.09974C51.5397 7.09974 53.9426 9.79873 53.9426 13.2994C53.9426 16.2389 52.7679 18.0827 47.9085 22.9997L34.5588 36.4412V41.0909H61.6391V35.3723H43.9036V34.918L52.5079 26.7676C59.1294 20.274 61.0784 17.1474 61.0784 12.658C61.0784 6.24462 55.5446 1.56816 47.8818 1.56816C39.8453 1.56816 34.185 6.97317 34.185 14.2684Z" fill="white"/>
<path d="M84.0084 41.0909C92.2319 41.0909 97.9062 36.9222 97.9062 30.1346C97.9062 25.1108 93.6737 21.3696 88.4939 20.8886V20.4076C92.3654 19.793 96.0106 16.2122 96.0106 12.1503C96.0106 6.2179 90.9503 2.53017 83.6346 2.53017H67.8623V41.0909H84.0084ZM75.0782 7.90142H81.9526C86.1177 7.90142 88.8748 9.90562 88.8748 13.3528C88.8748 16.8802 85.9575 18.7775 81.0715 18.7775H75.0782V7.90142ZM75.0782 35.7197V23.6678H82.1662C87.426 23.6678 90.5301 25.7254 90.5301 29.6536C90.5301 33.6086 87.5061 35.7197 82.4332 35.7197H75.0782Z" fill="white"/>
<path d="M102.2 41.0909H108.821V24.1221C108.821 20.0068 111.484 17.6622 115.783 17.6622C116.904 17.6622 118.667 17.8493 119.174 18.0363L120.484 11.6693C119.869 11.509 117.385 11.4021 116.424 11.4021C112.659 11.4021 109.509 13.5399 108.708 16.4259H108.581V11.5554H102.2V41.0909Z" fill="white"/>
<path d="M134.288 41.6788C143.019 41.6788 148.659 35.9602 148.659 26.4736C148.659 17.0406 142.992 11.3219 134.288 11.3219C125.611 11.3219 119.917 17.0673 119.917 26.4736C119.917 35.9602 125.53 41.6788 134.288 41.6788ZM134.288 35.9264C129.669 35.9264 126.698 32.6733 126.698 26.5004C126.698 20.3274 129.669 17.0743 134.288 17.0743C138.88 17.0743 141.851 20.3274 141.851 26.5004C141.851 32.6733 138.907 35.9264 134.288 35.9264Z" fill="white"/>
<path d="M160.162 23.8548H160.035V0.251709H153.414V41.0909H160.035V30.8294L162.058 28.8056L171.102 41.0909H179.766L167.324 24.416L178.965 11.8831H171.276L160.162 23.8548Z" fill="white"/>
<path d="M199.786 32.4454C198.825 34.6367 196.555 36.5214 193.271 36.5214C188.919 36.5214 186.443 33.4215 186.283 28.4778L185.956 28.1304H206.682V26.0194C206.682 16.8535 201.361 11.3219 193.031 11.3219C184.567 11.3219 178.98 17.2276 178.98 26.6073C178.98 35.9602 184.487 41.6788 193.084 41.6788C199.973 41.6788 205.186 38.0375 206.388 32.7731L199.786 32.4454ZM193.004 16.4794C196.983 16.4794 199.599 19.2853 199.733 23.7212H186.31C186.604 19.3387 189.053 16.4794 193.004 16.4794Z" fill="white"/>
<path d="M211.143 41.0909H217.764V24.1221C217.764 20.0068 220.427 17.6622 224.726 17.6622C225.847 17.6622 227.609 17.8493 228.116 18.0363L229.426 11.6693C228.812 11.509 226.328 11.4021 225.366 11.4021C221.602 11.4021 218.451 13.5399 217.65 16.4259H217.524V11.5554H211.143V41.0909Z" fill="white"/>
</svg>
