<svg width="210" height="21" viewBox="0 0 210 21" fill="none" xmlns="http://www.w3.org/2000/svg">
<path d="M2.56635 14.7584H9.68846V16.3804H0.574219V1.33867H2.56635V14.7584Z" fill="white"/>
<path d="M14.2528 16.3804H12.3433V5.20241H14.2528V16.3804ZM12.1884 2.23746C12.1884 1.92753 12.2813 1.66582 12.4671 1.45231C12.6598 1.23881 12.9419 1.13206 13.3135 1.13206C13.6851 1.13206 13.9672 1.23881 14.1599 1.45231C14.3526 1.66582 14.4489 1.92753 14.4489 2.23746C14.4489 2.54738 14.3526 2.80565 14.1599 3.01227C13.9672 3.21889 13.6851 3.32219 13.3135 3.32219C12.9419 3.32219 12.6598 3.21889 12.4671 3.01227C12.2813 2.80565 12.1884 2.54738 12.1884 2.23746Z" fill="white"/>
<path d="M17.3824 10.6984C17.3824 8.94217 17.785 7.55439 18.5901 6.53508C19.3952 5.50889 20.4755 4.99579 21.8311 4.99579C23.1523 4.99579 24.1949 5.44002 24.9587 6.32847L25.0413 5.20241H26.796V20.678H24.8864V15.3473C24.1157 16.1738 23.0904 16.587 21.8105 16.587C20.4618 16.587 19.3849 16.0636 18.5797 15.0167C17.7815 13.963 17.3824 12.5683 17.3824 10.8327V10.6984ZM19.292 10.9154C19.292 12.1964 19.5603 13.2019 20.0971 13.932C20.6407 14.662 21.3701 15.027 22.2853 15.027C23.4207 15.027 24.2878 14.5243 24.8864 13.5187V8.04339C24.2809 7.05851 23.4207 6.56608 22.306 6.56608C21.3839 6.56608 20.651 6.93454 20.1074 7.67148C19.5638 8.40152 19.292 9.48282 19.292 10.9154Z" fill="white"/>
<path d="M37.2851 15.275C36.5419 16.1496 35.4512 16.587 34.0131 16.587C32.8226 16.587 31.9143 16.2426 31.2881 15.5539C30.6688 14.8583 30.3557 13.8321 30.3488 12.4753V5.20241H32.2583V12.4237C32.2583 14.1179 32.9465 14.965 34.3227 14.965C35.7815 14.965 36.7518 14.421 37.2335 13.3328V5.20241H39.143V16.3804H37.3264L37.2851 15.275Z" fill="white"/>
<path d="M44.657 16.3804H42.7474V5.20241H44.657V16.3804ZM42.5926 2.23746C42.5926 1.92753 42.6855 1.66582 42.8713 1.45231C43.064 1.23881 43.3461 1.13206 43.7177 1.13206C44.0893 1.13206 44.3714 1.23881 44.5641 1.45231C44.7568 1.66582 44.8531 1.92753 44.8531 2.23746C44.8531 2.54738 44.7568 2.80565 44.5641 3.01227C44.3714 3.21889 44.0893 3.32219 43.7177 3.32219C43.3461 3.32219 43.064 3.21889 42.8713 3.01227C42.6855 2.80565 42.5926 2.54738 42.5926 2.23746Z" fill="white"/>
<path d="M47.7866 10.6984C47.7866 8.98349 48.1926 7.60605 49.0046 6.56608C49.8166 5.51922 50.8797 4.99579 52.1941 4.99579C53.5015 4.99579 54.5371 5.44346 55.3009 6.3388V0.512207H57.2105V16.3804H55.4558L55.3629 15.182C54.5991 16.1187 53.5359 16.587 52.1734 16.587C50.8797 16.587 49.8235 16.0567 49.0046 14.996C48.1926 13.9354 47.7866 12.5511 47.7866 10.843V10.6984ZM49.6962 10.9154C49.6962 12.1826 49.9576 13.1744 50.4806 13.8906C51.0036 14.6069 51.7261 14.965 52.6482 14.965C53.8593 14.965 54.7436 14.421 55.3009 13.3328V8.19835C54.7298 7.1446 53.8524 6.61773 52.6689 6.61773C51.733 6.61773 51.0036 6.97931 50.4806 7.70247C49.9576 8.42563 49.6962 9.49659 49.6962 10.9154Z" fill="white"/>
<path d="M62.7864 16.3804H60.8768V5.20241H62.7864V16.3804ZM60.722 2.23746C60.722 1.92753 60.8149 1.66582 61.0007 1.45231C61.1934 1.23881 61.4755 1.13206 61.8471 1.13206C62.2187 1.13206 62.5008 1.23881 62.6935 1.45231C62.8862 1.66582 62.9825 1.92753 62.9825 2.23746C62.9825 2.54738 62.8862 2.80565 62.6935 3.01227C62.5008 3.21889 62.2187 3.32219 61.8471 3.32219C61.4755 3.32219 61.1934 3.21889 61.0007 3.01227C60.8149 2.80565 60.722 2.54738 60.722 2.23746Z" fill="white"/>
<path d="M68.9713 2.49573V5.20241H71.0563V6.67972H68.9713V13.6117C68.9713 14.0594 69.0642 14.3969 69.25 14.6241C69.4358 14.8445 69.7523 14.9547 70.1996 14.9547C70.4198 14.9547 70.7226 14.9134 71.1079 14.8307V16.3804C70.6056 16.5181 70.117 16.587 69.6422 16.587C68.7889 16.587 68.1455 16.3287 67.712 15.8122C67.2785 15.2956 67.0617 14.5621 67.0617 13.6117V6.67972H65.0283V5.20241H67.0617V2.49573H68.9713Z" fill="white"/>
<path d="M77.4786 13.5807L80.0797 5.20241H82.1234L77.6334 18.1056C76.9384 19.9652 75.834 20.8949 74.3201 20.8949L73.9588 20.864L73.2466 20.7297V19.18L73.7627 19.2214C74.4096 19.2214 74.9119 19.0905 75.2697 18.8288C75.6344 18.5671 75.9337 18.0884 76.1677 17.3928L76.5909 16.2564L72.6067 5.20241H74.6917L77.4786 13.5807Z" fill="white"/>
<path d="M83.2919 15.3783C83.2919 15.0477 83.3882 14.7722 83.5809 14.5518C83.7805 14.3314 84.0764 14.2212 84.4686 14.2212C84.8608 14.2212 85.1567 14.3314 85.3563 14.5518C85.5627 14.7722 85.6659 15.0477 85.6659 15.3783C85.6659 15.6951 85.5627 15.9603 85.3563 16.1738C85.1567 16.3873 84.8608 16.494 84.4686 16.494C84.0764 16.494 83.7805 16.3873 83.5809 16.1738C83.3882 15.9603 83.2919 15.6951 83.2919 15.3783Z" fill="white"/>
<path d="M105.395 2.97095H100.565V16.3804H98.5931V2.97095H93.7727V1.33867H105.395V2.97095Z" fill="white"/>
<path d="M111.456 16.587C109.942 16.587 108.711 16.0911 107.761 15.0993C106.811 14.1007 106.337 12.768 106.337 11.1013V10.7501C106.337 9.64122 106.546 8.65291 106.966 7.78511C107.393 6.91044 107.985 6.2286 108.742 5.73961C109.505 5.24373 110.331 4.99579 111.219 4.99579C112.671 4.99579 113.799 5.47445 114.604 6.43178C115.41 7.3891 115.812 8.75966 115.812 10.5434V11.3389H108.246C108.274 12.4409 108.594 13.3328 109.206 14.0146C109.825 14.6896 110.61 15.027 111.559 15.027C112.234 15.027 112.805 14.8893 113.273 14.6138C113.741 14.3383 114.15 13.9733 114.501 13.5187L115.668 14.4278C114.732 15.8673 113.328 16.587 111.456 16.587ZM111.219 6.56608C110.448 6.56608 109.801 6.84845 109.278 7.41321C108.755 7.97107 108.432 8.75621 108.308 9.76864H113.903V9.624C113.847 8.65291 113.586 7.9022 113.118 7.37188C112.65 6.83468 112.017 6.56608 111.219 6.56608Z" fill="white"/>
<path d="M123.039 15.027C123.721 15.027 124.316 14.8204 124.825 14.4072C125.334 13.9939 125.617 13.4774 125.672 12.8576H127.478C127.443 13.4981 127.223 14.1076 126.817 14.6861C126.411 15.2646 125.868 15.7261 125.186 16.0704C124.512 16.4148 123.796 16.587 123.039 16.587C121.519 16.587 120.308 16.0808 119.406 15.0684C118.512 14.049 118.064 12.6578 118.064 10.8947V10.5744C118.064 9.48626 118.264 8.51861 118.663 7.67148C119.062 6.82435 119.633 6.16662 120.376 5.69829C121.126 5.22996 122.011 4.99579 123.029 4.99579C124.282 4.99579 125.321 5.37114 126.146 6.12185C126.979 6.87256 127.423 7.8471 127.478 9.04548H125.672C125.617 8.32232 125.341 7.73002 124.846 7.26857C124.357 6.80024 123.752 6.56608 123.029 6.56608C122.059 6.56608 121.305 6.91733 120.769 7.61982C120.239 8.31543 119.974 9.32441 119.974 10.6468V11.0083C119.974 12.2962 120.239 13.288 120.769 13.9836C121.299 14.6792 122.055 15.027 123.039 15.027Z" fill="white"/>
<path d="M132.063 6.55575C132.909 5.51578 134.01 4.99579 135.366 4.99579C137.726 4.99579 138.917 6.32847 138.937 8.99382V16.3804H137.028V8.98349C137.021 8.17769 136.835 7.58194 136.47 7.19626C136.113 6.81057 135.552 6.61773 134.788 6.61773C134.169 6.61773 133.625 6.78302 133.157 7.11361C132.689 7.4442 132.324 7.87809 132.063 8.4153V16.3804H130.153V0.512207H132.063V6.55575Z" fill="white"/>
<path d="M144.131 5.20241L144.193 6.6074C145.046 5.53299 146.161 4.99579 147.537 4.99579C149.898 4.99579 151.088 6.32847 151.109 8.99382V16.3804H149.199V8.98349C149.192 8.17769 149.007 7.58194 148.642 7.19626C148.284 6.81057 147.723 6.61773 146.959 6.61773C146.34 6.61773 145.797 6.78302 145.329 7.11361C144.861 7.4442 144.496 7.87809 144.234 8.4153V16.3804H142.325V5.20241H144.131Z" fill="white"/>
<path d="M154.011 10.6881C154.011 9.59301 154.225 8.60814 154.651 7.73346C155.085 6.85878 155.684 6.18384 156.447 5.70862C157.218 5.2334 158.095 4.99579 159.079 4.99579C160.6 4.99579 161.828 5.52266 162.764 6.57641C163.707 7.63015 164.178 9.0317 164.178 10.7811V10.9154C164.178 12.0035 163.969 12.9815 163.549 13.8493C163.136 14.7102 162.541 15.3817 161.763 15.8638C160.992 16.3459 160.105 16.587 159.1 16.587C157.586 16.587 156.358 16.0601 155.415 15.0064C154.479 13.9526 154.011 12.558 154.011 10.8224V10.6881ZM155.931 10.9154C155.931 12.1551 156.217 13.1503 156.788 13.901C157.366 14.6517 158.137 15.027 159.1 15.027C160.07 15.027 160.841 14.6482 161.412 13.8906C161.983 13.1262 162.269 12.0586 162.269 10.6881C162.269 9.46215 161.976 8.47039 161.392 7.7128C160.814 6.94832 160.043 6.56608 159.079 6.56608C158.137 6.56608 157.376 6.94143 156.798 7.69214C156.22 8.44285 155.931 9.51725 155.931 10.9154Z" fill="white"/>
<path d="M169.176 16.3804H167.267V0.512207H169.176V16.3804Z" fill="white"/>
<path d="M172.265 10.6881C172.265 9.59301 172.478 8.60814 172.905 7.73346C173.338 6.85878 173.937 6.18384 174.701 5.70862C175.471 5.2334 176.349 4.99579 177.333 4.99579C178.853 4.99579 180.082 5.52266 181.018 6.57641C181.96 7.63015 182.432 9.0317 182.432 10.7811V10.9154C182.432 12.0035 182.222 12.9815 181.802 13.8493C181.389 14.7102 180.794 15.3817 180.016 15.8638C179.246 16.3459 178.358 16.587 177.353 16.587C175.839 16.587 174.611 16.0601 173.668 15.0064C172.733 13.9526 172.265 12.558 172.265 10.8224V10.6881ZM174.185 10.9154C174.185 12.1551 174.47 13.1503 175.041 13.901C175.619 14.6517 176.39 15.027 177.353 15.027C178.324 15.027 179.094 14.6482 179.665 13.8906C180.237 13.1262 180.522 12.0586 180.522 10.6881C180.522 9.46215 180.23 8.47039 179.645 7.7128C179.067 6.94832 178.296 6.56608 177.333 6.56608C176.39 6.56608 175.63 6.94143 175.052 7.69214C174.474 8.44285 174.185 9.51725 174.185 10.9154Z" fill="white"/>
<path d="M184.901 10.6984C184.901 8.95594 185.303 7.57161 186.108 6.54541C186.913 5.51233 187.98 4.99579 189.308 4.99579C190.671 4.99579 191.734 5.4779 192.498 6.44211L192.591 5.20241H194.335V16.1118C194.335 17.5581 193.905 18.6979 193.045 19.5313C192.191 20.3646 191.042 20.7813 189.597 20.7813C188.792 20.7813 188.004 20.6091 187.233 20.2648C186.463 19.9204 185.874 19.4486 185.468 18.8494L186.459 17.7027C187.278 18.7151 188.279 19.2214 189.463 19.2214C190.392 19.2214 191.114 18.9596 191.631 18.4362C192.154 17.9128 192.415 17.1758 192.415 16.2254V15.2646C191.651 16.1462 190.609 16.587 189.288 16.587C187.98 16.587 186.92 16.0601 186.108 15.0064C185.303 13.9526 184.901 12.5166 184.901 10.6984ZM186.821 10.9154C186.821 12.1757 187.079 13.1675 187.595 13.8906C188.111 14.6069 188.833 14.965 189.762 14.965C190.967 14.965 191.851 14.4175 192.415 13.3224V8.21901C191.83 7.15149 190.953 6.61773 189.783 6.61773C188.854 6.61773 188.128 6.97931 187.605 7.70247C187.082 8.42563 186.821 9.49659 186.821 10.9154Z" fill="white"/>
<path d="M201.407 13.5807L204.009 5.20241H206.052L201.562 18.1056C200.867 19.9652 199.763 20.8949 198.249 20.8949L197.888 20.864L197.176 20.7297V19.18L197.692 19.2214C198.338 19.2214 198.841 19.0905 199.199 18.8288C199.563 18.5671 199.863 18.0884 200.097 17.3928L200.52 16.2564L196.536 5.20241H198.621L201.407 13.5807Z" fill="white"/>
<path d="M207.221 15.3783C207.221 15.0477 207.317 14.7722 207.51 14.5518C207.709 14.3314 208.005 14.2212 208.397 14.2212C208.79 14.2212 209.086 14.3314 209.285 14.5518C209.492 14.7722 209.595 15.0477 209.595 15.3783C209.595 15.6951 209.492 15.9603 209.285 16.1738C209.086 16.3873 208.79 16.494 208.397 16.494C208.005 16.494 207.709 16.3873 207.51 16.1738C207.317 15.9603 207.221 15.6951 207.221 15.3783Z" fill="white"/>
</svg>
